<svg xmlns="http://www.w3.org/2000/svg" width="900" height="680" viewBox="0 0 900 680">
  <defs>
    <!-- Glassmorphism filters -->
    <filter id="glass-shadow" x="-10%" y="-10%" width="120%" height="130%">
      <feDropShadow dx="0" dy="8" stdDeviation="16" flood-color="rgba(0,0,0,0.10)"/>
    </filter>
    <filter id="node-shadow" x="-15%" y="-15%" width="130%" height="140%">
      <feDropShadow dx="0" dy="4" stdDeviation="8" flood-color="rgba(0,0,0,0.08)"/>
    </filter>
    <filter id="glow-blue" x="-30%" y="-30%" width="160%" height="160%">
      <feDropShadow dx="0" dy="0" stdDeviation="6" flood-color="rgba(0,122,255,0.25)"/>
    </filter>
    <filter id="glow-green" x="-30%" y="-30%" width="160%" height="160%">
      <feDropShadow dx="0" dy="0" stdDeviation="6" flood-color="rgba(52,199,89,0.25)"/>
    </filter>
    <filter id="glow-purple" x="-30%" y="-30%" width="160%" height="160%">
      <feDropShadow dx="0" dy="0" stdDeviation="6" flood-color="rgba(175,82,222,0.25)"/>
    </filter>

    <!-- Arrow marker -->
    <marker id="arrow" viewBox="0 0 10 10" refX="9" refY="5" markerWidth="6" markerHeight="6" orient="auto-start-reverse">
      <path d="M 0 0 L 10 5 L 0 10 z" fill="#007aff"/>
    </marker>
    <marker id="arrow-gray" viewBox="0 0 10 10" refX="9" refY="5" markerWidth="6" markerHeight="6" orient="auto-start-reverse">
      <path d="M 0 0 L 10 5 L 0 10 z" fill="rgba(0,0,0,0.2)"/>
    </marker>
    <marker id="arrow-orange" viewBox="0 0 10 10" refX="9" refY="5" markerWidth="6" markerHeight="6" orient="auto-start-reverse">
      <path d="M 0 0 L 10 5 L 0 10 z" fill="#ff9500"/>
    </marker>
    <marker id="arrow-green" viewBox="0 0 10 10" refX="9" refY="5" markerWidth="6" markerHeight="6" orient="auto-start-reverse">
      <path d="M 0 0 L 10 5 L 0 10 z" fill="#34c759"/>
    </marker>

    <!-- Gradient backgrounds -->
    <linearGradient id="bg-grad" x1="0" y1="0" x2="1" y2="1">
      <stop offset="0%" stop-color="#f8f9fa"/>
      <stop offset="100%" stop-color="#eef1f5"/>
    </linearGradient>

    <style>
      .font { font-family: -apple-system, BlinkMacSystemFont, 'SF Pro Display', 'Inter', sans-serif; }
      .mono { font-family: 'SF Mono', 'Menlo', 'Monaco', monospace; }
    </style>
  </defs>

  <!-- Background -->
  <rect width="900" height="680" fill="url(#bg-grad)" rx="0"/>

  <!-- Title -->
  <text x="450" y="38" class="font" font-size="13" font-weight="600" fill="#86868b" text-anchor="middle" letter-spacing="1.5">CIARA ARCHITECTURE</text>

  <!-- ═══════════════════════════════════════ -->
  <!-- macOS Desktop region                    -->
  <!-- ═══════════════════════════════════════ -->
  <rect x="40" y="56" width="820" height="270" rx="20" ry="20"
        fill="rgba(255,255,255,0.55)" stroke="rgba(0,0,0,0.06)" stroke-width="1"
        filter="url(#glass-shadow)"/>
  <rect x="41" y="57" width="818" height="268" rx="19" ry="19"
        fill="none" stroke="rgba(255,255,255,0.8)" stroke-width="1"/>
  <text x="68" y="84" class="font" font-size="11" font-weight="600" fill="#86868b" letter-spacing="0.8">macOS DESKTOP</text>

  <!-- Electron node -->
  <rect x="72" y="104" width="240" height="190" rx="16" ry="16"
        fill="rgba(255,255,255,0.7)" stroke="rgba(0,122,255,0.15)" stroke-width="1"
        filter="url(#node-shadow)"/>
  <!-- Blue accent bar -->
  <rect x="72" y="104" width="240" height="4" rx="2" fill="#007aff" opacity="0.6"/>

  <!-- Electron icon (simplified window) -->
  <rect x="92" y="128" width="22" height="16" rx="3" fill="none" stroke="#007aff" stroke-width="1.5"/>
  <line x1="92" y1="134" x2="114" y2="134" stroke="#007aff" stroke-width="1" opacity="0.4"/>
  <circle cx="97" cy="131" r="1.5" fill="#ff5f57"/>
  <circle cx="103" cy="131" r="1.5" fill="#febc2e"/>
  <circle cx="109" cy="131" r="1.5" fill="#28c840"/>

  <text x="122" y="141" class="font" font-size="16" font-weight="600" fill="#1d1d1f">Electron</text>
  <text x="226" y="141" class="mono" font-size="11" font-weight="500" fill="#86868b">v36.2</text>

  <text x="92" y="168" class="font" font-size="12" font-weight="400" fill="#6e6e73">Transparent frameless window</text>
  <text x="92" y="186" class="font" font-size="12" font-weight="400" fill="#6e6e73">Glass-pill overlay UI</text>
  <text x="92" y="204" class="font" font-size="12" font-weight="400" fill="#6e6e73">Audio capture + streaming</text>
  <text x="92" y="222" class="font" font-size="12" font-weight="400" fill="#6e6e73">Ghost mouse passthrough</text>
  <text x="92" y="240" class="font" font-size="12" font-weight="400" fill="#6e6e73">Global hotkeys</text>

  <!-- Shortcuts badges -->
  <rect x="92" y="254" width="68" height="22" rx="6" fill="rgba(0,122,255,0.08)"/>
  <text x="126" y="269" class="mono" font-size="10" font-weight="600" fill="#007aff" text-anchor="middle">⌘⇧Space</text>
  <rect x="168" y="254" width="58" height="22" rx="6" fill="rgba(0,122,255,0.08)"/>
  <text x="197" y="269" class="mono" font-size="10" font-weight="600" fill="#007aff" text-anchor="middle">⌥Space</text>

  <!-- Python Backend node -->
  <rect x="400" y="104" width="240" height="190" rx="16" ry="16"
        fill="rgba(255,255,255,0.7)" stroke="rgba(52,199,89,0.15)" stroke-width="1"
        filter="url(#node-shadow)"/>
  <rect x="400" y="104" width="240" height="4" rx="2" fill="#34c759" opacity="0.6"/>

  <!-- Python icon (snake-ish) -->
  <circle cx="422" cy="131" r="8" fill="none" stroke="#34c759" stroke-width="1.5"/>
  <text x="419" y="135" class="font" font-size="10" font-weight="700" fill="#34c759">⌁</text>

  <text x="436" y="141" class="font" font-size="16" font-weight="600" fill="#1d1d1f">Python Backend</text>
  <text x="420" y="168" class="font" font-size="12" font-weight="400" fill="#6e6e73">SPAV Agent core loop</text>
  <text x="420" y="186" class="font" font-size="12" font-weight="400" fill="#6e6e73">Milestone executor</text>
  <text x="420" y="204" class="font" font-size="12" font-weight="400" fill="#6e6e73">Perception + verifier</text>
  <text x="420" y="222" class="font" font-size="12" font-weight="400" fill="#6e6e73">Tool registry (30+ tools)</text>
  <text x="420" y="240" class="font" font-size="12" font-weight="400" fill="#6e6e73">Accessibility API bridge</text>

  <!-- Port badge -->
  <rect x="420" y="254" width="72" height="22" rx="6" fill="rgba(52,199,89,0.08)"/>
  <text x="456" y="269" class="mono" font-size="10" font-weight="600" fill="#34c759" text-anchor="middle">WS :8000</text>

  <!-- macOS APIs node -->
  <rect x="716" y="104" width="120" height="120" rx="16" ry="16"
        fill="rgba(255,255,255,0.7)" stroke="rgba(175,82,222,0.15)" stroke-width="1"
        filter="url(#node-shadow)"/>
  <rect x="716" y="104" width="120" height="4" rx="2" fill="#af52de" opacity="0.6"/>

  <!-- gear icon -->
  <circle cx="740" cy="134" r="8" fill="none" stroke="#af52de" stroke-width="1.5"/>
  <circle cx="740" cy="134" r="3" fill="#af52de" opacity="0.3"/>

  <text x="754" y="138" class="font" font-size="13" font-weight="600" fill="#1d1d1f">macOS</text>
  <text x="736" y="162" class="font" font-size="11" font-weight="400" fill="#6e6e73">osascript</text>
  <text x="736" y="178" class="font" font-size="11" font-weight="400" fill="#6e6e73">AX API</text>
  <text x="736" y="194" class="font" font-size="11" font-weight="400" fill="#6e6e73">CGEvent</text>
  <text x="736" y="210" class="font" font-size="11" font-weight="400" fill="#6e6e73">Screen cap</text>

  <!-- ── Arrows: Electron ↔ Python ── -->
  <!-- Forward arrow (top) -->
  <line x1="312" y1="175" x2="400" y2="175" stroke="#007aff" stroke-width="2" marker-end="url(#arrow)" opacity="0.7"/>
  <rect x="332" y="162" width="44" height="16" rx="4" fill="rgba(0,122,255,0.08)"/>
  <text x="354" y="174" class="mono" font-size="9" font-weight="600" fill="#007aff" text-anchor="middle">WS</text>

  <!-- Return arrow (bottom) -->
  <line x1="400" y1="210" x2="312" y2="210" stroke="#007aff" stroke-width="2" marker-end="url(#arrow)" opacity="0.7"/>
  <rect x="332" y="200" width="44" height="16" rx="4" fill="rgba(0,122,255,0.08)"/>
  <text x="354" y="212" class="mono" font-size="9" font-weight="600" fill="#007aff" text-anchor="middle">JSON</text>

  <!-- Arrow: Python → macOS -->
  <line x1="640" y1="175" x2="716" y2="175" stroke="#af52de" stroke-width="2" marker-end="url(#arrow)" opacity="0.5"/>

  <!-- ═══════════════════════════════════════ -->
  <!-- Connector: Python → storage / APIs      -->
  <!-- ═══════════════════════════════════════ -->
  <line x1="520" y1="294" x2="174" y2="424" stroke="#ff9500" stroke-width="2" stroke-dasharray="6 4" opacity="0.65" marker-end="url(#arrow-orange)"/>
  <line x1="520" y1="294" x2="431" y2="424" stroke="#007aff" stroke-width="2" stroke-dasharray="6 4" opacity="0.55" marker-end="url(#arrow)"/>
  <line x1="520" y1="294" x2="716" y2="424" stroke="#34c759" stroke-width="2" opacity="0.65" marker-end="url(#arrow-green)"/>
  <rect x="378" y="334" width="144" height="22" rx="11" fill="rgba(0,0,0,0.04)" stroke="rgba(0,0,0,0.08)" stroke-width="1"/>
  <text x="450" y="349" class="font" font-size="10" font-weight="600" fill="#6e6e73" text-anchor="middle">disk · HTTPS · WS</text>

  <!-- ═══════════════════════════════════════ -->
  <!-- Local data · APIs · browser bridge      -->
  <!-- ═══════════════════════════════════════ -->
  <rect x="40" y="380" width="820" height="260" rx="20" ry="20"
        fill="rgba(255,255,255,0.55)" stroke="rgba(0,0,0,0.06)" stroke-width="1"
        filter="url(#glass-shadow)"/>
  <rect x="41" y="381" width="818" height="258" rx="19" ry="19"
        fill="none" stroke="rgba(255,255,255,0.8)" stroke-width="1"/>
  <text x="68" y="408" class="font" font-size="11" font-weight="600" fill="#86868b" letter-spacing="0.8">LOCAL DATA · GOOGLE APIs · BROWSER BRIDGE</text>

  <!-- Local disk node -->
  <rect x="72" y="424" width="205" height="188" rx="16" ry="16"
        fill="rgba(255,255,255,0.7)" stroke="rgba(255,149,0,0.22)" stroke-width="1"
        filter="url(#node-shadow)"/>
  <rect x="72" y="424" width="205" height="4" rx="2" fill="#ff9500" opacity="0.65"/>
  <ellipse cx="98" cy="452" rx="10" ry="5" fill="none" stroke="#ff9500" stroke-width="1.5"/>
  <line x1="88" y1="452" x2="88" y2="464" stroke="#ff9500" stroke-width="1.5"/>
  <line x1="108" y1="452" x2="108" y2="464" stroke="#ff9500" stroke-width="1.5"/>
  <ellipse cx="98" cy="464" rx="10" ry="5" fill="none" stroke="#ff9500" stroke-width="1.5"/>
  <text x="118" y="458" class="font" font-size="15" font-weight="600" fill="#1d1d1f">Local data</text>
  <text x="92" y="486" class="mono" font-size="10" font-weight="500" fill="#86868b">CIARA_DATA_DIR</text>
  <text x="92" y="506" class="font" font-size="12" font-weight="400" fill="#6e6e73">sessions · vault · screenshots</text>
  <text x="92" y="526" class="font" font-size="12" font-weight="400" fill="#6e6e73">plans · milestones · memories</text>
  <text x="92" y="546" class="font" font-size="12" font-weight="400" fill="#6e6e73">runtime_paths.py</text>

  <!-- Google APIs node -->
  <rect x="297" y="424" width="268" height="188" rx="16" ry="16"
        fill="rgba(255,255,255,0.7)" stroke="rgba(0,122,255,0.18)" stroke-width="1"
        filter="url(#node-shadow)"/>
  <rect x="297" y="424" width="268" height="4" rx="2" fill="#007aff" opacity="0.55"/>
  <path d="M332 448 C328 440, 338 434, 344 438 C346 432, 358 432, 360 438 C366 434, 374 440, 370 448 Z"
        fill="none" stroke="#007aff" stroke-width="1.4"/>
  <text x="388" y="452" class="font" font-size="15" font-weight="600" fill="#1d1d1f">Google APIs</text>
  <text x="318" y="478" class="font" font-size="12" font-weight="400" fill="#6e6e73">Gemini — LLM, routing, vision</text>
  <text x="318" y="498" class="font" font-size="12" font-weight="400" fill="#6e6e73">Cloud TTS — Neural2 streaming</text>
  <text x="318" y="518" class="font" font-size="12" font-weight="400" fill="#6e6e73">Outbound HTTPS only · no Cloud Run</text>
  <text x="318" y="542" class="mono" font-size="10" font-weight="500" fill="#86868b">providers/ · voice/tts.py</text>

  <!-- Chrome Extension node -->
  <rect x="593" y="424" width="247" height="188" rx="16" ry="16"
        fill="rgba(255,255,255,0.7)" stroke="rgba(52,199,89,0.15)" stroke-width="1"
        filter="url(#node-shadow)"/>
  <rect x="593" y="424" width="247" height="4" rx="2" fill="#34c759" opacity="0.6"/>
  <circle cx="619" cy="452" r="9" fill="none" stroke="#34c759" stroke-width="1.5"/>
  <circle cx="619" cy="452" r="3.5" fill="#34c759" opacity="0.3"/>
  <text x="635" y="457" class="font" font-size="14" font-weight="600" fill="#1d1d1f">Chrome Extension</text>
  <text x="613" y="482" class="font" font-size="12" font-weight="400" fill="#6e6e73">Manifest V3 · DOM snapshots</text>
  <text x="613" y="502" class="font" font-size="12" font-weight="400" fill="#6e6e73">Page actions · logged-in browser</text>
  <text x="613" y="522" class="font" font-size="12" font-weight="400" fill="#6e6e73">browser_bridge_server.py</text>
  <rect x="613" y="548" width="86" height="22" rx="6" fill="rgba(52,199,89,0.08)"/>
  <text x="656" y="563" class="mono" font-size="10" font-weight="600" fill="#34c759" text-anchor="middle">WS :8765</text>
</svg>
